<svg xmlns="http://www.w3.org/2000/svg" width="19.084" height="24.281" viewBox="0 0 19.084 24.281">
  <path id="sl-icon-pinterest" d="M71.4,2.488A9.311,9.311,0,0,0,64.889,0a10.238,10.238,0,0,0-7.551,2.911,8.6,8.6,0,0,0-2.545,5.963c0,2.7,1.131,4.777,3.024,5.549a1,1,0,0,0,.38.078.846.846,0,0,0,.826-.681c.064-.24.212-.834.276-1.091a1.024,1.024,0,0,0-.274-1.107,3.529,3.529,0,0,1-.8-2.411A6.069,6.069,0,0,1,64.515,3.1c3.243,0,5.258,1.843,5.258,4.81a9.995,9.995,0,0,1-1.136,4.883,3.359,3.359,0,0,1-2.778,1.944,1.842,1.842,0,0,1-1.465-.67,1.685,1.685,0,0,1-.3-1.464c.145-.612.342-1.25.532-1.867A11.556,11.556,0,0,0,65.308,7.7a2.208,2.208,0,0,0-2.222-2.429c-1.689,0-3.012,1.715-3.012,3.906a5.807,5.807,0,0,0,.415,2.186c-.213.9-1.477,6.261-1.717,7.272-.139.59-.974,5.25.409,5.622,1.554.417,2.943-4.121,3.084-4.634.115-.417.515-1.994.761-2.964a4.7,4.7,0,0,0,3.133,1.211,6.988,6.988,0,0,0,5.61-2.807,11.268,11.268,0,0,0,2.109-6.89A7.945,7.945,0,0,0,71.4,2.488Z" transform="translate(-54.793)" fill="#f6ede6"/>
</svg>
