<svg xmlns="http://www.w3.org/2000/svg" width="24.419" height="24.382" viewBox="0 0 24.419 24.382"><path d="M12.241,5.987A6.254,6.254,0,1,0,18.5,12.241,6.235,6.235,0,0,0,12.241,5.987Zm0,10.31A4.056,4.056,0,1,1,16.3,12.241,4.046,4.046,0,0,1,12.241,16.3ZM20.206,5.742A1.466,1.466,0,1,1,18.74,4.277,1.44,1.44,0,0,1,20.206,5.742Zm4.153,1.466A7.322,7.322,0,0,0,22.4,2.078,7.322,7.322,0,0,0,17.274.123c-2-.1-8.062-.1-10.066,0A7.406,7.406,0,0,0,2.078,2.078,7.111,7.111,0,0,0,.123,7.208c-.1,2-.1,8.062,0,10.066A7.322,7.322,0,0,0,2.078,22.4a7.322,7.322,0,0,0,5.131,1.954c2,.1,8.062.1,10.066,0A7.322,7.322,0,0,0,22.4,22.4a7.322,7.322,0,0,0,1.954-5.131c.147-2,.147-8.062,0-10.066Zm-2.59,12.216a4.251,4.251,0,0,1-2.345,2.345c-1.612.635-5.424.489-7.183.489s-5.619.147-7.183-.489a4.251,4.251,0,0,1-2.345-2.345c-.635-1.612-.489-5.424-.489-7.183s-.147-5.619.489-7.183A4.251,4.251,0,0,1,5.058,2.713c1.612-.635,5.424-.489,7.183-.489s5.619-.147,7.183.489a4.251,4.251,0,0,1,2.345,2.345c.635,1.612.489,5.424.489,7.183S22.4,17.86,21.769,19.424Z" transform="translate(-0.05 -0.05)" fill="#f6eae3"/></svg>