<svg xmlns="http://www.w3.org/2000/svg" width="16" height="21" viewBox="0 0 16 21"><path d="M162-913h9v-2a2.893,2.893,0,0,0-.875-2.125A2.893,2.893,0,0,0,168-918a2.893,2.893,0,0,0-2.125.875A2.893,2.893,0,0,0,165-915h-2a4.819,4.819,0,0,1,1.463-3.537A4.819,4.819,0,0,1,168-920a4.819,4.819,0,0,1,3.538,1.463A4.819,4.819,0,0,1,173-915v2h1a1.926,1.926,0,0,1,1.413.587A1.926,1.926,0,0,1,176-911v10a1.925,1.925,0,0,1-.587,1.412A1.926,1.926,0,0,1,174-899H162a1.926,1.926,0,0,1-1.412-.588A1.925,1.925,0,0,1,160-901v-10a1.926,1.926,0,0,1,.588-1.413A1.926,1.926,0,0,1,162-913Zm0,12h12v-10H162Zm6-3a1.926,1.926,0,0,0,1.413-.588A1.926,1.926,0,0,0,170-906a1.926,1.926,0,0,0-.588-1.412A1.926,1.926,0,0,0,168-908a1.926,1.926,0,0,0-1.412.588A1.926,1.926,0,0,0,166-906a1.926,1.926,0,0,0,.588,1.412A1.926,1.926,0,0,0,168-904Zm-6,3v0Z" transform="translate(-160 920)" fill="#fff"/></svg>