<svg xmlns="http://www.w3.org/2000/svg" width="112.638" height="93.473" viewBox="0 0 112.638 93.473">
  <g id="Grupo_6" data-name="Grupo 6" transform="translate(-215.654 -325.348)">
    <path id="Caminho_1" data-name="Caminho 1" d="M320.277,418.821H223.668a8,8,0,0,1-6.787-12.23l48.3-77.477a8,8,0,0,1,13.575,0l48.3,77.477a8,8,0,0,1-6.787,12.23Zm-48.3-90.33a4.827,4.827,0,0,0-4.12,2.286l-48.3,77.477a4.855,4.855,0,0,0,4.12,7.424h96.609a4.855,4.855,0,0,0,4.12-7.423l-48.3-77.477A4.827,4.827,0,0,0,271.973,328.491Z" transform="translate(0 0)" fill="#f6ede6"/>
    <path id="Caminho_2" data-name="Caminho 2" d="M584.665,529.755a5.684,5.684,0,0,1-5.645-5.241l-2.178-29.238c0-.021,0-.041,0-.062a7.844,7.844,0,0,1,15.644-1.166c0,.021,0,.042.006.063a8.41,8.41,0,0,1,0,1.154l-2.179,29.249A5.685,5.685,0,0,1,584.665,529.755Zm-4.686-34.68,2.176,29.206a2.517,2.517,0,0,0,5.021,0l2.178-29.238a5.285,5.285,0,0,0,0-.669,4.7,4.7,0,0,0-9.377.7Z" transform="translate(-312.693 -139.848)" fill="#f6ede6"/>
    <path id="Caminho_3" data-name="Caminho 3" d="M591.713,847.909a6.746,6.746,0,1,1,6.746-6.746A6.754,6.754,0,0,1,591.713,847.909Zm0-10.349a3.6,3.6,0,1,0,3.6,3.6A3.607,3.607,0,0,0,591.713,837.56Z" transform="translate(-319.735 -440.73)" fill="#f6ede6"/>
  </g>
</svg>
