<svg xmlns="http://www.w3.org/2000/svg" width="24.951" height="25" viewBox="0 0 24.951 25"><path d="M21.25,3.65A12.374,12.374,0,0,0,.1,12.4a12.248,12.248,0,0,0,1.65,6.2L0,25l6.55-1.7a12.178,12.178,0,0,0,5.9,1.5h0a12.516,12.516,0,0,0,12.5-12.4A12.142,12.142,0,0,0,21.25,3.65ZM12.5,22.7a10.251,10.251,0,0,1-5.25-1.45l-.35-.2-3.9,1,1-3.8-.25-.4a10.172,10.172,0,0,1-1.55-5.5A10.324,10.324,0,0,1,19.8,5.1a10.394,10.394,0,0,1,3.15,7.3A10.513,10.513,0,0,1,12.5,22.7ZM18.15,15c-.3-.15-1.85-.9-2.1-1-.3-.1-.5-.15-.7.15a12.7,12.7,0,0,1-1,1.2.466.466,0,0,1-.65.1,8.279,8.279,0,0,1-4.2-3.7c-.3-.55.3-.5.9-1.7a.536.536,0,0,0-.05-.55c-.1-.15-.7-1.7-.95-2.3s-.5-.5-.7-.55H8.1a1.292,1.292,0,0,0-.85.4,3.383,3.383,0,0,0-1.1,2.6,5.941,5.941,0,0,0,1.25,3.2,13.991,13.991,0,0,0,5.3,4.7,6.447,6.447,0,0,0,3.7.8,3.263,3.263,0,0,0,2.1-1.45,3.055,3.055,0,0,0,.2-1.45C18.65,15.2,18.45,15.15,18.15,15Z" fill="#f6eae3"/></svg>